<svg xmlns="http://www.w3.org/2000/svg" width="1600" height="900" viewBox="0 0 1600 900">
  <style>
    .actor{font:600 14px Segoe UI, Arial;}
    .oval{fill:#eef2ff;stroke:#5B2C91;stroke-width:1}
    .oval-red{fill:#fee2e2;stroke:#ef4444;stroke-width:1}
    .title{font:700 14px Segoe UI, Arial;}
    .text{font:400 12px Segoe UI, Arial;}
    .boundary{fill:#fff;stroke:#111827;stroke-width:1}
    .edge{stroke:#000;stroke-width:1;marker-end:url(#arrow)}
    .include{stroke:#6b7280;stroke-width:1;stroke-dasharray:6 4;marker-end:url(#arrow)}
  </style>
  <defs>
    <marker id="arrow" viewBox="0 0 10 10" refX="10" refY="5" markerUnits="strokeWidth" markerWidth="8" markerHeight="6" orient="auto">
      <path d="M 0 0 L 10 5 L 0 10 z" fill="#000"/>
    </marker>
  </defs>

  <rect x="300" y="80" width="1100" height="700" class="boundary"/>
  <text x="310" y="100" class="title">Sistema TRUCK HUB BUS</text>

  <text x="120" y="130" class="actor">Passageiro</text>
  <circle cx="140" cy="160" r="18" stroke="#000" fill="none"/>
  <line x1="140" y1="178" x2="140" y2="210" stroke="#000"/>
  <line x1="120" y1="190" x2="160" y2="190" stroke="#000"/>
  <line x1="140" y1="210" x2="120" y2="240" stroke="#000"/>
  <line x1="140" y1="210" x2="160" y2="240" stroke="#000"/>

  <text x="120" y="370" class="actor">Motorista</text>
  <circle cx="140" cy="400" r="18" stroke="#000" fill="none"/>
  <line x1="140" y1="418" x2="140" y2="450" stroke="#000"/>
  <line x1="120" y1="430" x2="160" y2="430" stroke="#000"/>
  <line x1="140" y1="450" x2="120" y2="480" stroke="#000"/>
  <line x1="140" y1="450" x2="160" y2="480" stroke="#000"/>

  <text x="120" y="570" class="actor">Admin</text>
  <circle cx="140" cy="600" r="18" stroke="#000" fill="none"/>
  <line x1="140" y1="618" x2="140" y2="650" stroke="#000"/>
  <line x1="120" y1="630" x2="160" y2="630" stroke="#000"/>
  <line x1="140" y1="650" x2="120" y2="680" stroke="#000"/>
  <line x1="140" y1="650" x2="160" y2="680" stroke="#000"/>

  <ellipse cx="420" cy="140" rx="110" ry="30" class="oval"/>
  <text x="345" y="145" class="text">Ver ônibus próximos</text>

  <ellipse cx="420" cy="220" rx="110" ry="30" class="oval"/>
  <text x="360" y="225" class="text">Selecionar destino</text>

  <ellipse cx="420" cy="300" rx="110" ry="30" class="oval"/>
  <text x="365" y="305" class="text">Ver ETA e rota</text>

  <ellipse cx="700" cy="420" rx="110" ry="30" class="oval"/>
  <text x="645" y="425" class="text">Login motorista</text>

  <ellipse cx="700" cy="520" rx="140" ry="30" class="oval"/>
  <text x="600" y="525" class="text">Enviar ponto de rastreamento</text>

  <ellipse cx="700" cy="620" rx="100" ry="30" class="oval-red"/>
  <text x="645" y="625" class="text">Emitir pânico</text>

  <ellipse cx="1040" cy="520" rx="160" ry="30" class="oval"/>
  <text x="915" y="525" class="text">Associar ônibus à linha e posicionar</text>

  <ellipse cx="1000" cy="420" rx="120" ry="30" class="oval"/>
  <text x="930" y="425" class="text">Gerenciar rotas reais</text>

  <line x1="160" y1="200" x2="320" y2="140" class="edge"/>
  <line x1="160" y1="200" x2="320" y2="220" class="edge"/>
  <line x1="160" y1="200" x2="320" y2="300" class="edge"/>

  <line x1="160" y1="440" x2="600" y2="420" class="edge"/>
  <line x1="160" y1="440" x2="560" y2="520" class="edge"/>
  <line x1="160" y1="440" x2="600" y2="620" class="edge"/>

  <line x1="160" y1="640" x2="880" y2="520" class="edge"/>
  <line x1="160" y1="640" x2="880" y2="420" class="edge"/>

  <line x1="530" y1="140" x2="530" y2="300" class="include"/>
  <text x="540" y="220" class="text"><<include>></text>
  <line x1="530" y1="140" x2="530" y2="220" class="include"/>
  <text x="540" y="180" class="text"><<include>></text>

</svg>
